<svg xmlns="http://www.w3.org/2000/svg" width="999.46" height="750.33" viewBox="0 0 999.46 750.33"><title>tidy-logo-small</title><circle cx="334.13" cy="335.46" r="333.3" fill="#fff"/><circle cx="665.66" cy="335.46" r="333.3" fill="#fff"/><g opacity="0.75"><circle cx="333.97" cy="335.46" r="333.3" fill="#ff686a"/></g><g opacity="0.75"><circle cx="665.49" cy="335.46" r="333.3" fill="#9fb1ff"/></g><path d="M186.68,252.47H121.56a31.24,31.24,0,0,1,0-62.48h198a31.24,31.24,0,1,1,0,62.48H254.44V466.76a33.88,33.88,0,0,1-67.76,0Z" fill="#fff"/><path d="M387.76,205.83c0-19.36,16.28-31.24,37.4-31.24s37.4,11.88,37.4,31.24v.88c0,19.37-16.28,31.68-37.4,31.68s-37.4-12.31-37.4-31.68Zm4,87.13a33.44,33.44,0,1,1,66.88,0V467.2a33.44,33.44,0,0,1-66.88,0Z" fill="#fff"/><path d="M758.68,467.2a33.45,33.45,0,0,1-66.89,0v-3.08c-16.27,22-38.72,38.28-73.48,38.28-55,0-107.35-43.12-107.35-121.88v-.88c0-78.76,51.48-121.89,107.35-121.89C654,257.75,676,274,691.79,293V207.59a33.45,33.45,0,0,1,66.89,0ZM577.83,379.64v.88c0,39.16,26.4,65.12,57.64,65.12s57.21-26,57.21-65.12v-.88c0-39.16-26-65.13-57.21-65.13S577.83,340,577.83,379.64Z" fill="#fff"/><path d="M817.63,205.83c0-19.36,16.28-31.24,37.4-31.24s37.4,11.88,37.4,31.24v.88c0,19.37-16.28,31.68-37.4,31.68s-37.4-12.31-37.4-31.68Zm4,87.13a33.44,33.44,0,1,1,66.88,0V467.2a33.44,33.44,0,0,1-66.88,0Z" fill="#fff"/><path d="M675.07,711.48c11,0,19.14,8.14,19.14,18.7v.44c0,10.56-8.14,18.7-19.14,18.7s-19.14-8.14-19.14-18.7v-.44C655.93,719.62,664.07,711.48,675.07,711.48Z" fill="#2a0055"/><path d="M721.05,601.92c0-9.68,8.14-15.63,18.7-15.63s18.7,6,18.7,15.63v.44c0,9.68-8.14,15.84-18.7,15.84s-18.7-6.16-18.7-15.84Zm2,43.56a16.72,16.72,0,0,1,33.44,0V732.6a16.72,16.72,0,0,1-33.44,0Z" fill="#2a0055"/><path d="M906.51,732.6a16.72,16.72,0,0,1-33.44,0v-1.54c-8.14,11-19.36,19.14-36.74,19.14-27.5,0-53.69-21.56-53.69-60.94v-.44c0-39.38,25.74-60.94,53.69-60.94,17.82,0,28.82,8.14,36.74,17.6V602.79a16.72,16.72,0,0,1,33.44,0Zm-90.42-43.78v.44c0,19.58,13.2,32.56,28.82,32.56s28.6-13,28.6-32.56v-.44c0-19.58-13-32.56-28.6-32.56S816.09,669,816.09,688.82Z" fill="#2a0055"/></svg>