<svg xmlns="http://www.w3.org/2000/svg" width="1428.17" height="668.67" viewBox="0 0 1428.17 668.67"><title>tidy-logo-big</title><circle cx="334.26" cy="334.34" r="333.3" fill="#fff"/><circle cx="665.78" cy="334.34" r="333.3" fill="#fff"/><g opacity="0.75"><circle cx="334.26" cy="334.34" r="333.3" fill="#ff686a"/></g><g opacity="0.75"><circle cx="665.78" cy="334.34" r="333.3" fill="#9fb1ff"/></g><path d="M166.68,251.47H101.56a31.24,31.24,0,0,1,0-62.48h198a31.24,31.24,0,1,1,0,62.48H234.44V465.76a33.88,33.88,0,0,1-67.76,0Z" fill="#fff"/><path d="M367.76,204.83c0-19.36,16.28-31.24,37.4-31.24s37.4,11.88,37.4,31.24v.88c0,19.36-16.28,31.68-37.4,31.68s-37.4-12.32-37.4-31.68Zm4,87.13a33.44,33.44,0,1,1,66.88,0V466.2a33.44,33.44,0,0,1-66.88,0Z" fill="#fff"/><path d="M738.68,466.2a33.44,33.44,0,1,1-66.88,0v-3.08c-16.28,22-38.72,38.28-73.48,38.28-55,0-107.36-43.12-107.36-121.88v-.88c0-78.77,51.48-121.89,107.36-121.89C634,256.75,656,273,671.8,292V206.59a33.44,33.44,0,1,1,66.88,0ZM557.83,378.64v.88c0,39.16,26.41,65.12,57.65,65.12s57.2-26,57.2-65.12v-.88c0-39.16-26-65.12-57.2-65.12S557.83,339,557.83,378.64Z" fill="#fff"/><path d="M797.63,204.83c0-19.36,16.28-31.24,37.4-31.24s37.4,11.88,37.4,31.24v.88c0,19.36-16.28,31.68-37.4,31.68s-37.4-12.32-37.4-31.68Zm4,87.13a33.44,33.44,0,1,1,66.88,0V466.2a33.44,33.44,0,0,1-66.88,0Z" fill="#fff"/><path d="M964.38,424c22,0,38.28,16.28,38.28,37.4v.88c0,21.12-16.28,37.4-38.28,37.4s-38.28-16.28-38.28-37.4v-.88C926.1,440.24,942.38,424,964.38,424Z" fill="#2a0055"/><path d="M1056.34,204.83c0-19.36,16.28-31.24,37.4-31.24s37.4,11.88,37.4,31.24v.88c0,19.36-16.28,31.68-37.4,31.68s-37.4-12.32-37.4-31.68Zm4,87.13a33.44,33.44,0,1,1,66.88,0V466.2a33.44,33.44,0,0,1-66.88,0Z" fill="#2a0055"/><path d="M1427.26,466.2a33.44,33.44,0,0,1-66.88,0v-3.08c-16.28,22-38.72,38.28-73.48,38.28-55,0-107.36-43.12-107.36-121.88v-.88c0-78.77,51.48-121.89,107.36-121.89,35.64,0,57.64,16.28,73.48,35.21V206.59a33.44,33.44,0,0,1,66.88,0Zm-180.84-87.56v.88c0,39.16,26.4,65.12,57.64,65.12s57.2-26,57.2-65.12v-.88c0-39.16-26-65.12-57.2-65.12S1246.42,339,1246.42,378.64Z" fill="#2a0055"/></svg>